{
 "cells": [
  {
   "cell_type": "markdown",
   "id": "da061065",
   "metadata": {},
   "source": [
    "# SP3 – Final exercises"
   ]
  },
  {
   "cell_type": "markdown",
   "id": "0392f781",
   "metadata": {},
   "source": [
    "* Student full name: Ariadna Cortés Puig\n",
    "* Student email: ariadna.cortes01@estudiant.upf.edu"
   ]
  },
  {
   "cell_type": "code",
   "execution_count": 2,
   "id": "dc944ccd",
   "metadata": {},
   "outputs": [],
   "source": [
    "import ffmpy\n",
    "import ffmpeg\n",
    "import os"
   ]
  },
  {
   "cell_type": "code",
   "execution_count": 3,
   "id": "5d863e34",
   "metadata": {},
   "outputs": [],
   "source": [
    "## Exercici 1 \n",
    "def convert(name, output, mode):\n",
    "    if (mode == \"VP8\"):\n",
    "        ff = ffmpy.FFmpeg(\n",
    "            inputs={''+str(name)+'': None},\n",
    "            outputs={''+str(output)+'': '-c:v libvpx -b:v 2M -c:a libvorbis'})\n",
    "        ff.cmd\n",
    "        ff.run()\n",
    "    elif (mode == \"VP9\"):\n",
    "        ff = ffmpy.FFmpeg(\n",
    "            inputs={''+str(name)+'': None},\n",
    "            outputs={''+str(output)+'': '-c:v libvpx-vp9 -b:v 2M '})\n",
    "        ff.cmd\n",
    "        ff.run()\n",
    "    elif (mode == \"h265\"):\n",
    "        ff = ffmpy.FFmpeg(\n",
    "            inputs={''+str(name)+'': None},\n",
    "            outputs={''+str(output)+'': '-c:v libx265 -crf 26 \\\n",
    "                                         -preset fast -c:a aac -b:a 128k'})\n",
    "        ff.cmd\n",
    "        ff.run()\n",
    "    elif (mode == \"AV1\"):\n",
    "        ff = ffmpy.FFmpeg(\n",
    "            inputs={''+str(name)+'': None},\n",
    "            outputs={''+str(output)+'': '-c:v libaom-av1 \\\n",
    "                                         -crf 30 -b:v 0'})\n",
    "        ff.cmd\n",
    "        ff.run()\n",
    "\n",
    "## Exercici 2\n",
    "\n",
    "def comparison(video1,video2,output): \n",
    "        ff = ffmpy.FFmpeg(\n",
    "            inputs={''+str(video1)+'': None,\n",
    "                    ''+str(video2)+'': None},\n",
    "            outputs={''+str(output)+'': '-filter_complex hstack'})\n",
    "        ff.cmd\n",
    "        ff.run()\n",
    "    "
   ]
  },
  {
   "cell_type": "markdown",
   "id": "c05c6b4f",
   "metadata": {},
   "source": [
    "**1)Remember you have the BBB video converted\n",
    "into these? 720p 480p 360x240 160x120**\n",
    "\n",
    "**Convert them into VP8, VP9, H265 & AV1.\n",
    "Automatize all these tasks inside a new class\n",
    "in Python**\n",
    "\n",
    "https://trac.ffmpeg.org/wiki/Encode/AV1\n"
   ]
  },
  {
   "cell_type": "code",
   "execution_count": 16,
   "id": "8d10a1e7",
   "metadata": {},
   "outputs": [
    {
     "name": "stderr",
     "output_type": "stream",
     "text": [
      "ffmpeg version N-104465-g08a501946f-tessus  https://evermeet.cx/ffmpeg/  Copyright (c) 2000-2021 the FFmpeg developers\n",
      "  built with Apple clang version 11.0.0 (clang-1100.0.33.17)\n",
      "  configuration: --cc=/usr/bin/clang --prefix=/opt/ffmpeg --extra-version=tessus --enable-avisynth --enable-fontconfig --enable-gpl --enable-libaom --enable-libass --enable-libbluray --enable-libdav1d --enable-libfreetype --enable-libgsm --enable-libmodplug --enable-libmp3lame --enable-libmysofa --enable-libopencore-amrnb --enable-libopencore-amrwb --enable-libopenh264 --enable-libopenjpeg --enable-libopus --enable-librubberband --enable-libshine --enable-libsnappy --enable-libsoxr --enable-libspeex --enable-libtheora --enable-libtwolame --enable-libvidstab --enable-libvmaf --enable-libvo-amrwbenc --enable-libvorbis --enable-libvpx --enable-libwebp --enable-libx264 --enable-libx265 --enable-libxavs --enable-libxvid --enable-libzimg --enable-libzmq --enable-libzvbi --enable-version3 --pkg-config-flags=--static --disable-ffplay\n",
      "  libavutil      57.  7.100 / 57.  7.100\n",
      "  libavcodec     59. 12.100 / 59. 12.100\n",
      "  libavformat    59.  8.100 / 59.  8.100\n",
      "  libavdevice    59.  0.101 / 59.  0.101\n",
      "  libavfilter     8. 16.101 /  8. 16.101\n",
      "  libswscale      6.  1.100 /  6.  1.100\n",
      "  libswresample   4.  0.100 /  4.  0.100\n",
      "  libpostproc    56.  0.100 / 56.  0.100\n",
      "Input #0, mov,mp4,m4a,3gp,3g2,mj2, from 'BBB_720.mp4':\n",
      "  Metadata:\n",
      "    major_brand     : isom\n",
      "    minor_version   : 512\n",
      "    compatible_brands: isomiso2avc1mp41\n",
      "    encoder         : Lavf59.8.100\n",
      "  Duration: 00:00:30.02, start: 0.000000, bitrate: 1585 kb/s\n",
      "  Stream #0:0[0x1](und): Video: h264 (High) (avc1 / 0x31637661), yuv420p(tv, bt709, progressive), 1280x720 [SAR 1:1 DAR 16:9], 1237 kb/s, 24 fps, 24 tbr, 12288 tbn (default)\n",
      "    Metadata:\n",
      "      handler_name    : VideoHandler\n",
      "      vendor_id       : [0][0][0][0]\n",
      "  Stream #0:1[0x2](und): Audio: aac (LC) (mp4a / 0x6134706D), 48000 Hz, 5.1, fltp, 342 kb/s (default)\n",
      "    Metadata:\n",
      "      handler_name    : SoundHandler\n",
      "      vendor_id       : [0][0][0][0]\n",
      "Stream mapping:\n",
      "  Stream #0:0 -> #0:0 (h264 (native) -> vp8 (libvpx))\n",
      "  Stream #0:1 -> #0:1 (aac (native) -> vorbis (libvorbis))\n",
      "Press [q] to stop, [?] for help\n",
      "[libvpx @ 0x7f9112105dc0] v1.11.0-23-gc56ab7d0c\n",
      "Output #0, webm, to '720_vp8.webm':\n",
      "  Metadata:\n",
      "    major_brand     : isom\n",
      "    minor_version   : 512\n",
      "    compatible_brands: isomiso2avc1mp41\n",
      "    encoder         : Lavf59.8.100\n",
      "  Stream #0:0(und): Video: vp8, yuv420p(tv, bt709, progressive), 1280x720 [SAR 1:1 DAR 16:9], q=2-31, 1000 kb/s, 24 fps, 1k tbn (default)\n",
      "    Metadata:\n",
      "      handler_name    : VideoHandler\n",
      "      vendor_id       : [0][0][0][0]\n",
      "      encoder         : Lavc59.12.100 libvpx\n",
      "    Side data:\n",
      "      cpb: bitrate max/min/avg: 0/0/0 buffer size: 0 vbv_delay: N/A\n",
      "  Stream #0:1(und): Audio: vorbis, 48000 Hz, 5.1, fltp (default)\n",
      "    Metadata:\n",
      "      handler_name    : SoundHandler\n",
      "      vendor_id       : [0][0][0][0]\n",
      "      encoder         : Lavc59.12.100 libvorbis\n",
      "frame=  720 fps=4.2 q=0.0 Lsize=    4685kB time=00:00:30.00 bitrate=1279.1kbits/s speed=0.177x    \n",
      "video:3791kB audio:870kB subtitle:0kB other streams:0kB global headers:7kB muxing overhead: 0.512676%\n",
      "ffmpeg version N-104465-g08a501946f-tessus  https://evermeet.cx/ffmpeg/  Copyright (c) 2000-2021 the FFmpeg developers\n",
      "  built with Apple clang version 11.0.0 (clang-1100.0.33.17)\n",
      "  configuration: --cc=/usr/bin/clang --prefix=/opt/ffmpeg --extra-version=tessus --enable-avisynth --enable-fontconfig --enable-gpl --enable-libaom --enable-libass --enable-libbluray --enable-libdav1d --enable-libfreetype --enable-libgsm --enable-libmodplug --enable-libmp3lame --enable-libmysofa --enable-libopencore-amrnb --enable-libopencore-amrwb --enable-libopenh264 --enable-libopenjpeg --enable-libopus --enable-librubberband --enable-libshine --enable-libsnappy --enable-libsoxr --enable-libspeex --enable-libtheora --enable-libtwolame --enable-libvidstab --enable-libvmaf --enable-libvo-amrwbenc --enable-libvorbis --enable-libvpx --enable-libwebp --enable-libx264 --enable-libx265 --enable-libxavs --enable-libxvid --enable-libzimg --enable-libzmq --enable-libzvbi --enable-version3 --pkg-config-flags=--static --disable-ffplay\n",
      "  libavutil      57.  7.100 / 57.  7.100\n",
      "  libavcodec     59. 12.100 / 59. 12.100\n",
      "  libavformat    59.  8.100 / 59.  8.100\n",
      "  libavdevice    59.  0.101 / 59.  0.101\n",
      "  libavfilter     8. 16.101 /  8. 16.101\n",
      "  libswscale      6.  1.100 /  6.  1.100\n",
      "  libswresample   4.  0.100 /  4.  0.100\n",
      "  libpostproc    56.  0.100 / 56.  0.100\n",
      "Input #0, mov,mp4,m4a,3gp,3g2,mj2, from 'BBB_480.mp4':\n",
      "  Metadata:\n",
      "    major_brand     : isom\n",
      "    minor_version   : 512\n",
      "    compatible_brands: isomiso2avc1mp41\n",
      "    encoder         : Lavf59.8.100\n",
      "  Duration: 00:00:30.02, start: 0.000000, bitrate: 1053 kb/s\n",
      "  Stream #0:0[0x1](und): Video: h264 (High) (avc1 / 0x31637661), yuv420p(tv, bt709, progressive), 720x480 [SAR 32:27 DAR 16:9], 705 kb/s, 24 fps, 24 tbr, 12288 tbn (default)\n",
      "    Metadata:\n",
      "      handler_name    : VideoHandler\n",
      "      vendor_id       : [0][0][0][0]\n",
      "  Stream #0:1[0x2](und): Audio: aac (LC) (mp4a / 0x6134706D), 48000 Hz, 5.1, fltp, 342 kb/s (default)\n",
      "    Metadata:\n",
      "      handler_name    : SoundHandler\n",
      "      vendor_id       : [0][0][0][0]\n",
      "Stream mapping:\n",
      "  Stream #0:0 -> #0:0 (h264 (native) -> vp8 (libvpx))\n",
      "  Stream #0:1 -> #0:1 (aac (native) -> vorbis (libvorbis))\n",
      "Press [q] to stop, [?] for help\n",
      "[libvpx @ 0x7ff7a8712e00] v1.11.0-23-gc56ab7d0c\n",
      "Output #0, webm, to '480_vp8.webm':\n",
      "  Metadata:\n",
      "    major_brand     : isom\n",
      "    minor_version   : 512\n",
      "    compatible_brands: isomiso2avc1mp41\n",
      "    encoder         : Lavf59.8.100\n",
      "  Stream #0:0(und): Video: vp8, yuv420p(tv, bt709, progressive), 720x480 [SAR 32:27 DAR 16:9], q=2-31, 1000 kb/s, 24 fps, 1k tbn (default)\n",
      "    Metadata:\n",
      "      handler_name    : VideoHandler\n",
      "      vendor_id       : [0][0][0][0]\n",
      "      encoder         : Lavc59.12.100 libvpx\n",
      "    Side data:\n",
      "      cpb: bitrate max/min/avg: 0/0/0 buffer size: 0 vbv_delay: N/A\n",
      "  Stream #0:1(und): Audio: vorbis, 48000 Hz, 5.1, fltp (default)\n",
      "    Metadata:\n",
      "      handler_name    : SoundHandler\n",
      "      vendor_id       : [0][0][0][0]\n",
      "      encoder         : Lavc59.12.100 libvorbis\n",
      "frame=  720 fps=7.4 q=0.0 Lsize=    4601kB time=00:00:30.00 bitrate=1256.3kbits/s speed=0.307x    \n",
      "video:3707kB audio:870kB subtitle:0kB other streams:0kB global headers:7kB muxing overhead: 0.521861%\n",
      "ffmpeg version N-104465-g08a501946f-tessus  https://evermeet.cx/ffmpeg/  Copyright (c) 2000-2021 the FFmpeg developers\n",
      "  built with Apple clang version 11.0.0 (clang-1100.0.33.17)\n",
      "  configuration: --cc=/usr/bin/clang --prefix=/opt/ffmpeg --extra-version=tessus --enable-avisynth --enable-fontconfig --enable-gpl --enable-libaom --enable-libass --enable-libbluray --enable-libdav1d --enable-libfreetype --enable-libgsm --enable-libmodplug --enable-libmp3lame --enable-libmysofa --enable-libopencore-amrnb --enable-libopencore-amrwb --enable-libopenh264 --enable-libopenjpeg --enable-libopus --enable-librubberband --enable-libshine --enable-libsnappy --enable-libsoxr --enable-libspeex --enable-libtheora --enable-libtwolame --enable-libvidstab --enable-libvmaf --enable-libvo-amrwbenc --enable-libvorbis --enable-libvpx --enable-libwebp --enable-libx264 --enable-libx265 --enable-libxavs --enable-libxvid --enable-libzimg --enable-libzmq --enable-libzvbi --enable-version3 --pkg-config-flags=--static --disable-ffplay\n",
      "  libavutil      57.  7.100 / 57.  7.100\n",
      "  libavcodec     59. 12.100 / 59. 12.100\n",
      "  libavformat    59.  8.100 / 59.  8.100\n",
      "  libavdevice    59.  0.101 / 59.  0.101\n",
      "  libavfilter     8. 16.101 /  8. 16.101\n",
      "  libswscale      6.  1.100 /  6.  1.100\n",
      "  libswresample   4.  0.100 /  4.  0.100\n",
      "  libpostproc    56.  0.100 / 56.  0.100\n",
      "Input #0, mov,mp4,m4a,3gp,3g2,mj2, from 'BBB_360x240.mp4':\n",
      "  Metadata:\n",
      "    major_brand     : isom\n",
      "    minor_version   : 512\n",
      "    compatible_brands: isomiso2avc1mp41\n",
      "    encoder         : Lavf59.8.100\n",
      "  Duration: 00:00:30.02, start: 0.000000, bitrate: 574 kb/s\n",
      "  Stream #0:0[0x1](und): Video: h264 (High) (avc1 / 0x31637661), yuv420p(tv, bt709, progressive), 360x240 [SAR 32:27 DAR 16:9], 226 kb/s, 24 fps, 24 tbr, 12288 tbn (default)\n",
      "    Metadata:\n",
      "      handler_name    : VideoHandler\n",
      "      vendor_id       : [0][0][0][0]\n",
      "  Stream #0:1[0x2](und): Audio: aac (LC) (mp4a / 0x6134706D), 48000 Hz, 5.1, fltp, 342 kb/s (default)\n",
      "    Metadata:\n",
      "      handler_name    : SoundHandler\n",
      "      vendor_id       : [0][0][0][0]\n",
      "Stream mapping:\n",
      "  Stream #0:0 -> #0:0 (h264 (native) -> vp8 (libvpx))\n",
      "  Stream #0:1 -> #0:1 (aac (native) -> vorbis (libvorbis))\n",
      "Press [q] to stop, [?] for help\n",
      "[libvpx @ 0x7f7e51f06a40] v1.11.0-23-gc56ab7d0c\n",
      "Output #0, webm, to '360x240_vp8.webm':\n",
      "  Metadata:\n",
      "    major_brand     : isom\n",
      "    minor_version   : 512\n",
      "    compatible_brands: isomiso2avc1mp41\n",
      "    encoder         : Lavf59.8.100\n",
      "  Stream #0:0(und): Video: vp8, yuv420p(tv, bt709, progressive), 360x240 [SAR 32:27 DAR 16:9], q=2-31, 1000 kb/s, 24 fps, 1k tbn (default)\n",
      "    Metadata:\n",
      "      handler_name    : VideoHandler\n",
      "      vendor_id       : [0][0][0][0]\n",
      "      encoder         : Lavc59.12.100 libvpx\n",
      "    Side data:\n",
      "      cpb: bitrate max/min/avg: 0/0/0 buffer size: 0 vbv_delay: N/A\n",
      "  Stream #0:1(und): Audio: vorbis, 48000 Hz, 5.1, fltp (default)\n",
      "    Metadata:\n",
      "      handler_name    : SoundHandler\n",
      "      vendor_id       : [0][0][0][0]\n",
      "      encoder         : Lavc59.12.100 libvorbis\n"
     ]
    },
    {
     "name": "stderr",
     "output_type": "stream",
     "text": [
      "frame=  720 fps= 32 q=0.0 Lsize=    4601kB time=00:00:30.00 bitrate=1256.1kbits/s speed=1.32x    \n",
      "video:3707kB audio:870kB subtitle:0kB other streams:0kB global headers:7kB muxing overhead: 0.521782%\n",
      "ffmpeg version N-104465-g08a501946f-tessus  https://evermeet.cx/ffmpeg/  Copyright (c) 2000-2021 the FFmpeg developers\n",
      "  built with Apple clang version 11.0.0 (clang-1100.0.33.17)\n",
      "  configuration: --cc=/usr/bin/clang --prefix=/opt/ffmpeg --extra-version=tessus --enable-avisynth --enable-fontconfig --enable-gpl --enable-libaom --enable-libass --enable-libbluray --enable-libdav1d --enable-libfreetype --enable-libgsm --enable-libmodplug --enable-libmp3lame --enable-libmysofa --enable-libopencore-amrnb --enable-libopencore-amrwb --enable-libopenh264 --enable-libopenjpeg --enable-libopus --enable-librubberband --enable-libshine --enable-libsnappy --enable-libsoxr --enable-libspeex --enable-libtheora --enable-libtwolame --enable-libvidstab --enable-libvmaf --enable-libvo-amrwbenc --enable-libvorbis --enable-libvpx --enable-libwebp --enable-libx264 --enable-libx265 --enable-libxavs --enable-libxvid --enable-libzimg --enable-libzmq --enable-libzvbi --enable-version3 --pkg-config-flags=--static --disable-ffplay\n",
      "  libavutil      57.  7.100 / 57.  7.100\n",
      "  libavcodec     59. 12.100 / 59. 12.100\n",
      "  libavformat    59.  8.100 / 59.  8.100\n",
      "  libavdevice    59.  0.101 / 59.  0.101\n",
      "  libavfilter     8. 16.101 /  8. 16.101\n",
      "  libswscale      6.  1.100 /  6.  1.100\n",
      "  libswresample   4.  0.100 /  4.  0.100\n",
      "  libpostproc    56.  0.100 / 56.  0.100\n",
      "Input #0, mov,mp4,m4a,3gp,3g2,mj2, from 'BBB_160x120.mp4':\n",
      "  Metadata:\n",
      "    major_brand     : isom\n",
      "    minor_version   : 512\n",
      "    compatible_brands: isomiso2avc1mp41\n",
      "    encoder         : Lavf59.8.100\n",
      "  Duration: 00:00:30.02, start: 0.000000, bitrate: 415 kb/s\n",
      "  Stream #0:0[0x1](und): Video: h264 (High) (avc1 / 0x31637661), yuv420p(tv, bt709, progressive), 160x120 [SAR 4:3 DAR 16:9], 67 kb/s, 24 fps, 24 tbr, 12288 tbn (default)\n",
      "    Metadata:\n",
      "      handler_name    : VideoHandler\n",
      "      vendor_id       : [0][0][0][0]\n",
      "  Stream #0:1[0x2](und): Audio: aac (LC) (mp4a / 0x6134706D), 48000 Hz, 5.1, fltp, 342 kb/s (default)\n",
      "    Metadata:\n",
      "      handler_name    : SoundHandler\n",
      "      vendor_id       : [0][0][0][0]\n",
      "Stream mapping:\n",
      "  Stream #0:0 -> #0:0 (h264 (native) -> vp8 (libvpx))\n",
      "  Stream #0:1 -> #0:1 (aac (native) -> vorbis (libvorbis))\n",
      "Press [q] to stop, [?] for help\n",
      "[libvpx @ 0x7f8453712440] v1.11.0-23-gc56ab7d0c\n",
      "Output #0, webm, to '160x120_vp8.webm':\n",
      "  Metadata:\n",
      "    major_brand     : isom\n",
      "    minor_version   : 512\n",
      "    compatible_brands: isomiso2avc1mp41\n",
      "    encoder         : Lavf59.8.100\n",
      "  Stream #0:0(und): Video: vp8, yuv420p(tv, bt709, progressive), 160x120 [SAR 4:3 DAR 16:9], q=2-31, 1000 kb/s, 24 fps, 1k tbn (default)\n",
      "    Metadata:\n",
      "      handler_name    : VideoHandler\n",
      "      vendor_id       : [0][0][0][0]\n",
      "      encoder         : Lavc59.12.100 libvpx\n",
      "    Side data:\n",
      "      cpb: bitrate max/min/avg: 0/0/0 buffer size: 0 vbv_delay: N/A\n",
      "  Stream #0:1(und): Audio: vorbis, 48000 Hz, 5.1, fltp (default)\n",
      "    Metadata:\n",
      "      handler_name    : SoundHandler\n",
      "      vendor_id       : [0][0][0][0]\n",
      "      encoder         : Lavc59.12.100 libvorbis\n",
      "frame=  720 fps= 73 q=0.0 Lsize=    1869kB time=00:00:30.00 bitrate= 510.2kbits/s speed=3.04x    \n",
      "video:974kB audio:870kB subtitle:0kB other streams:0kB global headers:7kB muxing overhead: 1.295347%\n"
     ]
    }
   ],
   "source": [
    "# VP8\n",
    "convert('BBB_720.mp4', '720_vp8.webm', \"VP8\")\n",
    "convert('BBB_480.mp4', '480_vp8.webm', \"VP8\")\n",
    "convert('BBB_360x240.mp4', '360x240_vp8.webm', \"VP8\")\n",
    "convert('BBB_160x120.mp4', '160x120_vp8.webm', \"VP8\")\n"
   ]
  },
  {
   "cell_type": "code",
   "execution_count": 17,
   "id": "a1c06860",
   "metadata": {},
   "outputs": [
    {
     "name": "stderr",
     "output_type": "stream",
     "text": [
      "ffmpeg version N-104465-g08a501946f-tessus  https://evermeet.cx/ffmpeg/  Copyright (c) 2000-2021 the FFmpeg developers\n",
      "  built with Apple clang version 11.0.0 (clang-1100.0.33.17)\n",
      "  configuration: --cc=/usr/bin/clang --prefix=/opt/ffmpeg --extra-version=tessus --enable-avisynth --enable-fontconfig --enable-gpl --enable-libaom --enable-libass --enable-libbluray --enable-libdav1d --enable-libfreetype --enable-libgsm --enable-libmodplug --enable-libmp3lame --enable-libmysofa --enable-libopencore-amrnb --enable-libopencore-amrwb --enable-libopenh264 --enable-libopenjpeg --enable-libopus --enable-librubberband --enable-libshine --enable-libsnappy --enable-libsoxr --enable-libspeex --enable-libtheora --enable-libtwolame --enable-libvidstab --enable-libvmaf --enable-libvo-amrwbenc --enable-libvorbis --enable-libvpx --enable-libwebp --enable-libx264 --enable-libx265 --enable-libxavs --enable-libxvid --enable-libzimg --enable-libzmq --enable-libzvbi --enable-version3 --pkg-config-flags=--static --disable-ffplay\n",
      "  libavutil      57.  7.100 / 57.  7.100\n",
      "  libavcodec     59. 12.100 / 59. 12.100\n",
      "  libavformat    59.  8.100 / 59.  8.100\n",
      "  libavdevice    59.  0.101 / 59.  0.101\n",
      "  libavfilter     8. 16.101 /  8. 16.101\n",
      "  libswscale      6.  1.100 /  6.  1.100\n",
      "  libswresample   4.  0.100 /  4.  0.100\n",
      "  libpostproc    56.  0.100 / 56.  0.100\n",
      "Input #0, mov,mp4,m4a,3gp,3g2,mj2, from 'BBB_720.mp4':\n",
      "  Metadata:\n",
      "    major_brand     : isom\n",
      "    minor_version   : 512\n",
      "    compatible_brands: isomiso2avc1mp41\n",
      "    encoder         : Lavf59.8.100\n",
      "  Duration: 00:00:30.02, start: 0.000000, bitrate: 1585 kb/s\n",
      "  Stream #0:0[0x1](und): Video: h264 (High) (avc1 / 0x31637661), yuv420p(tv, bt709, progressive), 1280x720 [SAR 1:1 DAR 16:9], 1237 kb/s, 24 fps, 24 tbr, 12288 tbn (default)\n",
      "    Metadata:\n",
      "      handler_name    : VideoHandler\n",
      "      vendor_id       : [0][0][0][0]\n",
      "  Stream #0:1[0x2](und): Audio: aac (LC) (mp4a / 0x6134706D), 48000 Hz, 5.1, fltp, 342 kb/s (default)\n",
      "    Metadata:\n",
      "      handler_name    : SoundHandler\n",
      "      vendor_id       : [0][0][0][0]\n",
      "Stream mapping:\n",
      "  Stream #0:0 -> #0:0 (h264 (native) -> vp9 (libvpx-vp9))\n",
      "  Stream #0:1 -> #0:1 (aac (native) -> opus (libopus))\n",
      "Press [q] to stop, [?] for help\n",
      "[libopus @ 0x7f8dea205980] No bit rate set. Defaulting to 320000 bps.\n",
      "[libvpx-vp9 @ 0x7f8de8707440] v1.11.0-23-gc56ab7d0c\n",
      "Output #0, webm, to '720_VP9.webm':\n",
      "  Metadata:\n",
      "    major_brand     : isom\n",
      "    minor_version   : 512\n",
      "    compatible_brands: isomiso2avc1mp41\n",
      "    encoder         : Lavf59.8.100\n",
      "  Stream #0:0(und): Video: vp9, yuv420p(tv, bt709, progressive), 1280x720 [SAR 1:1 DAR 16:9], q=2-31, 2000 kb/s, 24 fps, 1k tbn (default)\n",
      "    Metadata:\n",
      "      handler_name    : VideoHandler\n",
      "      vendor_id       : [0][0][0][0]\n",
      "      encoder         : Lavc59.12.100 libvpx-vp9\n",
      "    Side data:\n",
      "      cpb: bitrate max/min/avg: 0/0/0 buffer size: 0 vbv_delay: N/A\n",
      "  Stream #0:1(und): Audio: opus, 48000 Hz, 5.1, flt, 320 kb/s (default)\n",
      "    Metadata:\n",
      "      handler_name    : SoundHandler\n",
      "      vendor_id       : [0][0][0][0]\n",
      "      encoder         : Lavc59.12.100 libopus\n",
      "frame=  720 fps=2.2 q=0.0 Lsize=   39828kB time=00:00:30.03 bitrate=10863.4kbits/s speed=0.091x    \n",
      "video:38827kB audio:984kB subtitle:0kB other streams:0kB global headers:0kB muxing overhead: 0.041941%\n",
      "ffmpeg version N-104465-g08a501946f-tessus  https://evermeet.cx/ffmpeg/  Copyright (c) 2000-2021 the FFmpeg developers\n",
      "  built with Apple clang version 11.0.0 (clang-1100.0.33.17)\n",
      "  configuration: --cc=/usr/bin/clang --prefix=/opt/ffmpeg --extra-version=tessus --enable-avisynth --enable-fontconfig --enable-gpl --enable-libaom --enable-libass --enable-libbluray --enable-libdav1d --enable-libfreetype --enable-libgsm --enable-libmodplug --enable-libmp3lame --enable-libmysofa --enable-libopencore-amrnb --enable-libopencore-amrwb --enable-libopenh264 --enable-libopenjpeg --enable-libopus --enable-librubberband --enable-libshine --enable-libsnappy --enable-libsoxr --enable-libspeex --enable-libtheora --enable-libtwolame --enable-libvidstab --enable-libvmaf --enable-libvo-amrwbenc --enable-libvorbis --enable-libvpx --enable-libwebp --enable-libx264 --enable-libx265 --enable-libxavs --enable-libxvid --enable-libzimg --enable-libzmq --enable-libzvbi --enable-version3 --pkg-config-flags=--static --disable-ffplay\n",
      "  libavutil      57.  7.100 / 57.  7.100\n",
      "  libavcodec     59. 12.100 / 59. 12.100\n",
      "  libavformat    59.  8.100 / 59.  8.100\n",
      "  libavdevice    59.  0.101 / 59.  0.101\n",
      "  libavfilter     8. 16.101 /  8. 16.101\n",
      "  libswscale      6.  1.100 /  6.  1.100\n",
      "  libswresample   4.  0.100 /  4.  0.100\n",
      "  libpostproc    56.  0.100 / 56.  0.100\n",
      "Input #0, mov,mp4,m4a,3gp,3g2,mj2, from 'BBB_480.mp4':\n",
      "  Metadata:\n",
      "    major_brand     : isom\n",
      "    minor_version   : 512\n",
      "    compatible_brands: isomiso2avc1mp41\n",
      "    encoder         : Lavf59.8.100\n",
      "  Duration: 00:00:30.02, start: 0.000000, bitrate: 1053 kb/s\n",
      "  Stream #0:0[0x1](und): Video: h264 (High) (avc1 / 0x31637661), yuv420p(tv, bt709, progressive), 720x480 [SAR 32:27 DAR 16:9], 705 kb/s, 24 fps, 24 tbr, 12288 tbn (default)\n",
      "    Metadata:\n",
      "      handler_name    : VideoHandler\n",
      "      vendor_id       : [0][0][0][0]\n",
      "  Stream #0:1[0x2](und): Audio: aac (LC) (mp4a / 0x6134706D), 48000 Hz, 5.1, fltp, 342 kb/s (default)\n",
      "    Metadata:\n",
      "      handler_name    : SoundHandler\n",
      "      vendor_id       : [0][0][0][0]\n",
      "Stream mapping:\n",
      "  Stream #0:0 -> #0:0 (h264 (native) -> vp9 (libvpx-vp9))\n",
      "  Stream #0:1 -> #0:1 (aac (native) -> opus (libopus))\n",
      "Press [q] to stop, [?] for help\n",
      "[libopus @ 0x7fe560d05940] No bit rate set. Defaulting to 320000 bps.\n",
      "[libvpx-vp9 @ 0x7fe560d048c0] v1.11.0-23-gc56ab7d0c\n",
      "Output #0, webm, to '480_VP9.webm':\n",
      "  Metadata:\n",
      "    major_brand     : isom\n",
      "    minor_version   : 512\n",
      "    compatible_brands: isomiso2avc1mp41\n",
      "    encoder         : Lavf59.8.100\n",
      "  Stream #0:0(und): Video: vp9, yuv420p(tv, bt709, progressive), 720x480 [SAR 32:27 DAR 16:9], q=2-31, 2000 kb/s, 24 fps, 1k tbn (default)\n",
      "    Metadata:\n",
      "      handler_name    : VideoHandler\n",
      "      vendor_id       : [0][0][0][0]\n",
      "      encoder         : Lavc59.12.100 libvpx-vp9\n",
      "    Side data:\n",
      "      cpb: bitrate max/min/avg: 0/0/0 buffer size: 0 vbv_delay: N/A\n",
      "  Stream #0:1(und): Audio: opus, 48000 Hz, 5.1, flt, 320 kb/s (default)\n",
      "    Metadata:\n",
      "      handler_name    : SoundHandler\n",
      "      vendor_id       : [0][0][0][0]\n",
      "      encoder         : Lavc59.12.100 libopus\n",
      "frame=  720 fps=3.1 q=0.0 Lsize=   20634kB time=00:00:30.03 bitrate=5628.1kbits/s speed=0.129x    \n",
      "video:19633kB audio:984kB subtitle:0kB other streams:0kB global headers:0kB muxing overhead: 0.080772%\n",
      "ffmpeg version N-104465-g08a501946f-tessus  https://evermeet.cx/ffmpeg/  Copyright (c) 2000-2021 the FFmpeg developers\n",
      "  built with Apple clang version 11.0.0 (clang-1100.0.33.17)\n",
      "  configuration: --cc=/usr/bin/clang --prefix=/opt/ffmpeg --extra-version=tessus --enable-avisynth --enable-fontconfig --enable-gpl --enable-libaom --enable-libass --enable-libbluray --enable-libdav1d --enable-libfreetype --enable-libgsm --enable-libmodplug --enable-libmp3lame --enable-libmysofa --enable-libopencore-amrnb --enable-libopencore-amrwb --enable-libopenh264 --enable-libopenjpeg --enable-libopus --enable-librubberband --enable-libshine --enable-libsnappy --enable-libsoxr --enable-libspeex --enable-libtheora --enable-libtwolame --enable-libvidstab --enable-libvmaf --enable-libvo-amrwbenc --enable-libvorbis --enable-libvpx --enable-libwebp --enable-libx264 --enable-libx265 --enable-libxavs --enable-libxvid --enable-libzimg --enable-libzmq --enable-libzvbi --enable-version3 --pkg-config-flags=--static --disable-ffplay\n",
      "  libavutil      57.  7.100 / 57.  7.100\n",
      "  libavcodec     59. 12.100 / 59. 12.100\n",
      "  libavformat    59.  8.100 / 59.  8.100\n",
      "  libavdevice    59.  0.101 / 59.  0.101\n",
      "  libavfilter     8. 16.101 /  8. 16.101\n",
      "  libswscale      6.  1.100 /  6.  1.100\n",
      "  libswresample   4.  0.100 /  4.  0.100\n",
      "  libpostproc    56.  0.100 / 56.  0.100\n",
      "Input #0, mov,mp4,m4a,3gp,3g2,mj2, from 'BBB_360x240.mp4':\n",
      "  Metadata:\n",
      "    major_brand     : isom\n",
      "    minor_version   : 512\n",
      "    compatible_brands: isomiso2avc1mp41\n",
      "    encoder         : Lavf59.8.100\n",
      "  Duration: 00:00:30.02, start: 0.000000, bitrate: 574 kb/s\n",
      "  Stream #0:0[0x1](und): Video: h264 (High) (avc1 / 0x31637661), yuv420p(tv, bt709, progressive), 360x240 [SAR 32:27 DAR 16:9], 226 kb/s, 24 fps, 24 tbr, 12288 tbn (default)\n",
      "    Metadata:\n",
      "      handler_name    : VideoHandler\n",
      "      vendor_id       : [0][0][0][0]\n",
      "  Stream #0:1[0x2](und): Audio: aac (LC) (mp4a / 0x6134706D), 48000 Hz, 5.1, fltp, 342 kb/s (default)\n",
      "    Metadata:\n",
      "      handler_name    : SoundHandler\n",
      "      vendor_id       : [0][0][0][0]\n",
      "Stream mapping:\n",
      "  Stream #0:0 -> #0:0 (h264 (native) -> vp9 (libvpx-vp9))\n",
      "  Stream #0:1 -> #0:1 (aac (native) -> opus (libopus))\n",
      "Press [q] to stop, [?] for help\n",
      "[libopus @ 0x7f78d2906cc0] No bit rate set. Defaulting to 320000 bps.\n",
      "[libvpx-vp9 @ 0x7f78d29054c0] v1.11.0-23-gc56ab7d0c\n",
      "Output #0, webm, to '360x240_VP9.webm':\n",
      "  Metadata:\n",
      "    major_brand     : isom\n",
      "    minor_version   : 512\n",
      "    compatible_brands: isomiso2avc1mp41\n",
      "    encoder         : Lavf59.8.100\n",
      "  Stream #0:0(und): Video: vp9, yuv420p(tv, bt709, progressive), 360x240 [SAR 32:27 DAR 16:9], q=2-31, 2000 kb/s, 24 fps, 1k tbn (default)\n",
      "    Metadata:\n",
      "      handler_name    : VideoHandler\n",
      "      vendor_id       : [0][0][0][0]\n",
      "      encoder         : Lavc59.12.100 libvpx-vp9\n",
      "    Side data:\n",
      "      cpb: bitrate max/min/avg: 0/0/0 buffer size: 0 vbv_delay: N/A\n",
      "  Stream #0:1(und): Audio: opus, 48000 Hz, 5.1, flt, 320 kb/s (default)\n",
      "    Metadata:\n",
      "      handler_name    : SoundHandler\n",
      "      vendor_id       : [0][0][0][0]\n",
      "      encoder         : Lavc59.12.100 libopus\n"
     ]
    },
    {
     "name": "stderr",
     "output_type": "stream",
     "text": [
      "frame=  720 fps=9.4 q=0.0 Lsize=    7982kB time=00:00:30.03 bitrate=2177.1kbits/s speed=0.393x    \n",
      "video:6981kB audio:984kB subtitle:0kB other streams:0kB global headers:0kB muxing overhead: 0.208414%\n",
      "ffmpeg version N-104465-g08a501946f-tessus  https://evermeet.cx/ffmpeg/  Copyright (c) 2000-2021 the FFmpeg developers\n",
      "  built with Apple clang version 11.0.0 (clang-1100.0.33.17)\n",
      "  configuration: --cc=/usr/bin/clang --prefix=/opt/ffmpeg --extra-version=tessus --enable-avisynth --enable-fontconfig --enable-gpl --enable-libaom --enable-libass --enable-libbluray --enable-libdav1d --enable-libfreetype --enable-libgsm --enable-libmodplug --enable-libmp3lame --enable-libmysofa --enable-libopencore-amrnb --enable-libopencore-amrwb --enable-libopenh264 --enable-libopenjpeg --enable-libopus --enable-librubberband --enable-libshine --enable-libsnappy --enable-libsoxr --enable-libspeex --enable-libtheora --enable-libtwolame --enable-libvidstab --enable-libvmaf --enable-libvo-amrwbenc --enable-libvorbis --enable-libvpx --enable-libwebp --enable-libx264 --enable-libx265 --enable-libxavs --enable-libxvid --enable-libzimg --enable-libzmq --enable-libzvbi --enable-version3 --pkg-config-flags=--static --disable-ffplay\n",
      "  libavutil      57.  7.100 / 57.  7.100\n",
      "  libavcodec     59. 12.100 / 59. 12.100\n",
      "  libavformat    59.  8.100 / 59.  8.100\n",
      "  libavdevice    59.  0.101 / 59.  0.101\n",
      "  libavfilter     8. 16.101 /  8. 16.101\n",
      "  libswscale      6.  1.100 /  6.  1.100\n",
      "  libswresample   4.  0.100 /  4.  0.100\n",
      "  libpostproc    56.  0.100 / 56.  0.100\n",
      "Input #0, mov,mp4,m4a,3gp,3g2,mj2, from 'BBB_160x120.mp4':\n",
      "  Metadata:\n",
      "    major_brand     : isom\n",
      "    minor_version   : 512\n",
      "    compatible_brands: isomiso2avc1mp41\n",
      "    encoder         : Lavf59.8.100\n",
      "  Duration: 00:00:30.02, start: 0.000000, bitrate: 415 kb/s\n",
      "  Stream #0:0[0x1](und): Video: h264 (High) (avc1 / 0x31637661), yuv420p(tv, bt709, progressive), 160x120 [SAR 4:3 DAR 16:9], 67 kb/s, 24 fps, 24 tbr, 12288 tbn (default)\n",
      "    Metadata:\n",
      "      handler_name    : VideoHandler\n",
      "      vendor_id       : [0][0][0][0]\n",
      "  Stream #0:1[0x2](und): Audio: aac (LC) (mp4a / 0x6134706D), 48000 Hz, 5.1, fltp, 342 kb/s (default)\n",
      "    Metadata:\n",
      "      handler_name    : SoundHandler\n",
      "      vendor_id       : [0][0][0][0]\n",
      "Stream mapping:\n",
      "  Stream #0:0 -> #0:0 (h264 (native) -> vp9 (libvpx-vp9))\n",
      "  Stream #0:1 -> #0:1 (aac (native) -> opus (libopus))\n",
      "Press [q] to stop, [?] for help\n",
      "[libopus @ 0x7f932b912b40] No bit rate set. Defaulting to 320000 bps.\n",
      "[libvpx-vp9 @ 0x7f932b911640] v1.11.0-23-gc56ab7d0c\n",
      "Output #0, webm, to '160x120_VP9.webm':\n",
      "  Metadata:\n",
      "    major_brand     : isom\n",
      "    minor_version   : 512\n",
      "    compatible_brands: isomiso2avc1mp41\n",
      "    encoder         : Lavf59.8.100\n",
      "  Stream #0:0(und): Video: vp9, yuv420p(tv, bt709, progressive), 160x120 [SAR 4:3 DAR 16:9], q=2-31, 2000 kb/s, 24 fps, 1k tbn (default)\n",
      "    Metadata:\n",
      "      handler_name    : VideoHandler\n",
      "      vendor_id       : [0][0][0][0]\n",
      "      encoder         : Lavc59.12.100 libvpx-vp9\n",
      "    Side data:\n",
      "      cpb: bitrate max/min/avg: 0/0/0 buffer size: 0 vbv_delay: N/A\n",
      "  Stream #0:1(und): Audio: opus, 48000 Hz, 5.1, flt, 320 kb/s (default)\n",
      "    Metadata:\n",
      "      handler_name    : SoundHandler\n",
      "      vendor_id       : [0][0][0][0]\n",
      "      encoder         : Lavc59.12.100 libopus\n",
      "frame=  720 fps= 43 q=0.0 Lsize=    3398kB time=00:00:30.03 bitrate= 926.8kbits/s speed=1.81x    \n",
      "video:2397kB audio:984kB subtitle:0kB other streams:0kB global headers:0kB muxing overhead: 0.485368%\n"
     ]
    }
   ],
   "source": [
    "# VP9\n",
    "convert('BBB_720.mp4', '720_VP9.webm', \"VP9\")\n",
    "convert('BBB_480.mp4', '480_VP9.webm', \"VP9\")\n",
    "convert('BBB_360x240.mp4', '360x240_VP9.webm', \"VP9\")\n",
    "convert('BBB_160x120.mp4', '160x120_VP9.webm', \"VP9\")\n"
   ]
  },
  {
   "cell_type": "code",
   "execution_count": 4,
   "id": "1481cf5a",
   "metadata": {},
   "outputs": [
    {
     "name": "stderr",
     "output_type": "stream",
     "text": [
      "ffmpeg version N-104465-g08a501946f-tessus  https://evermeet.cx/ffmpeg/  Copyright (c) 2000-2021 the FFmpeg developers\n",
      "  built with Apple clang version 11.0.0 (clang-1100.0.33.17)\n",
      "  configuration: --cc=/usr/bin/clang --prefix=/opt/ffmpeg --extra-version=tessus --enable-avisynth --enable-fontconfig --enable-gpl --enable-libaom --enable-libass --enable-libbluray --enable-libdav1d --enable-libfreetype --enable-libgsm --enable-libmodplug --enable-libmp3lame --enable-libmysofa --enable-libopencore-amrnb --enable-libopencore-amrwb --enable-libopenh264 --enable-libopenjpeg --enable-libopus --enable-librubberband --enable-libshine --enable-libsnappy --enable-libsoxr --enable-libspeex --enable-libtheora --enable-libtwolame --enable-libvidstab --enable-libvmaf --enable-libvo-amrwbenc --enable-libvorbis --enable-libvpx --enable-libwebp --enable-libx264 --enable-libx265 --enable-libxavs --enable-libxvid --enable-libzimg --enable-libzmq --enable-libzvbi --enable-version3 --pkg-config-flags=--static --disable-ffplay\n",
      "  libavutil      57.  7.100 / 57.  7.100\n",
      "  libavcodec     59. 12.100 / 59. 12.100\n",
      "  libavformat    59.  8.100 / 59.  8.100\n",
      "  libavdevice    59.  0.101 / 59.  0.101\n",
      "  libavfilter     8. 16.101 /  8. 16.101\n",
      "  libswscale      6.  1.100 /  6.  1.100\n",
      "  libswresample   4.  0.100 /  4.  0.100\n",
      "  libpostproc    56.  0.100 / 56.  0.100\n",
      "Input #0, mov,mp4,m4a,3gp,3g2,mj2, from 'BBB_720.mp4':\n",
      "  Metadata:\n",
      "    major_brand     : isom\n",
      "    minor_version   : 512\n",
      "    compatible_brands: isomiso2avc1mp41\n",
      "    encoder         : Lavf59.8.100\n",
      "  Duration: 00:00:30.02, start: 0.000000, bitrate: 1585 kb/s\n",
      "  Stream #0:0[0x1](und): Video: h264 (High) (avc1 / 0x31637661), yuv420p(tv, bt709, progressive), 1280x720 [SAR 1:1 DAR 16:9], 1237 kb/s, 24 fps, 24 tbr, 12288 tbn (default)\n",
      "    Metadata:\n",
      "      handler_name    : VideoHandler\n",
      "      vendor_id       : [0][0][0][0]\n",
      "  Stream #0:1[0x2](und): Audio: aac (LC) (mp4a / 0x6134706D), 48000 Hz, 5.1, fltp, 342 kb/s (default)\n",
      "    Metadata:\n",
      "      handler_name    : SoundHandler\n",
      "      vendor_id       : [0][0][0][0]\n",
      "Stream mapping:\n",
      "  Stream #0:0 -> #0:0 (h264 (native) -> hevc (libx265))\n",
      "  Stream #0:1 -> #0:1 (aac (native) -> aac (native))\n",
      "Press [q] to stop, [?] for help\n",
      "x265 [info]: HEVC encoder version 3.5+19-8003e4382\n",
      "x265 [info]: build info [Mac OS X][clang 11.0.0][64 bit] 8bit+10bit+12bit\n",
      "x265 [info]: using cpu capabilities: MMX2 SSE2Fast LZCNT SSSE3 SSE4.2 AVX FMA3 BMI2 AVX2\n",
      "x265 [info]: Main profile, Level-3.1 (Main tier)\n",
      "x265 [info]: Thread pool created using 4 threads\n",
      "x265 [info]: Slices                              : 1\n",
      "x265 [info]: frame threads / pool features       : 2 / wpp(12 rows)\n",
      "x265 [info]: Coding QT: max CU size, min CU size : 64 / 8\n",
      "x265 [info]: Residual QT: max TU size, max depth : 32 / 1 inter / 1 intra\n",
      "x265 [info]: ME / range / subpel / merge         : hex / 57 / 2 / 2\n",
      "x265 [info]: Keyframe min / max / scenecut / bias  : 24 / 250 / 40 / 5.00 \n",
      "x265 [info]: Lookahead / bframes / badapt        : 15 / 4 / 0\n",
      "x265 [info]: b-pyramid / weightp / weightb       : 1 / 1 / 0\n",
      "x265 [info]: References / ref-limit  cu / depth  : 3 / on / on\n",
      "x265 [info]: AQ: mode / str / qg-size / cu-tree  : 2 / 1.0 / 32 / 1\n",
      "x265 [info]: Rate Control / qCompress            : CRF-26.0 / 0.60\n",
      "x265 [info]: tools: rd=2 psy-rd=2.00 rskip mode=1 signhide tmvp fast-intra\n",
      "x265 [info]: tools: strong-intra-smoothing lslices=4 deblock sao\n",
      "Output #0, mp4, to '720_h265.mp4':\n",
      "  Metadata:\n",
      "    major_brand     : isom\n",
      "    minor_version   : 512\n",
      "    compatible_brands: isomiso2avc1mp41\n",
      "    encoder         : Lavf59.8.100\n",
      "  Stream #0:0(und): Video: hevc (hev1 / 0x31766568), yuv420p(tv, bt709, progressive), 1280x720 [SAR 1:1 DAR 16:9], q=2-31, 24 fps, 12288 tbn (default)\n",
      "    Metadata:\n",
      "      handler_name    : VideoHandler\n",
      "      vendor_id       : [0][0][0][0]\n",
      "      encoder         : Lavc59.12.100 libx265\n",
      "    Side data:\n",
      "      cpb: bitrate max/min/avg: 0/0/0 buffer size: 0 vbv_delay: N/A\n",
      "  Stream #0:1(und): Audio: aac (LC) (mp4a / 0x6134706D), 48000 Hz, 5.1, fltp, 128 kb/s (default)\n",
      "    Metadata:\n",
      "      handler_name    : SoundHandler\n",
      "      vendor_id       : [0][0][0][0]\n",
      "      encoder         : Lavc59.12.100 aac\n",
      "frame=  720 fps=8.8 q=33.1 Lsize=    3340kB time=00:00:30.01 bitrate= 911.6kbits/s speed=0.368x    \n",
      "video:2845kB audio:472kB subtitle:0kB other streams:0kB global headers:2kB muxing overhead: 0.716914%\n",
      "x265 [info]: frame I:      5, Avg QP:24.01  kb/s: 16775.92\n",
      "x265 [info]: frame P:    143, Avg QP:24.95  kb/s: 2744.04 \n",
      "x265 [info]: frame B:    572, Avg QP:32.68  kb/s: 143.30  \n",
      "x265 [info]: Weighted P-Frames: Y:10.5% UV:7.7%\n",
      "x265 [info]: consecutive B-frames: 2.7% 0.7% 0.0% 0.7% 95.9% \n",
      "\n",
      "encoded 720 frames in 81.43s (8.84 fps), 775.34 kb/s, Avg QP:31.08\n",
      "[aac @ 0x7fcc19107b00] Qavg: 617.886\n",
      "ffmpeg version N-104465-g08a501946f-tessus  https://evermeet.cx/ffmpeg/  Copyright (c) 2000-2021 the FFmpeg developers\n",
      "  built with Apple clang version 11.0.0 (clang-1100.0.33.17)\n",
      "  configuration: --cc=/usr/bin/clang --prefix=/opt/ffmpeg --extra-version=tessus --enable-avisynth --enable-fontconfig --enable-gpl --enable-libaom --enable-libass --enable-libbluray --enable-libdav1d --enable-libfreetype --enable-libgsm --enable-libmodplug --enable-libmp3lame --enable-libmysofa --enable-libopencore-amrnb --enable-libopencore-amrwb --enable-libopenh264 --enable-libopenjpeg --enable-libopus --enable-librubberband --enable-libshine --enable-libsnappy --enable-libsoxr --enable-libspeex --enable-libtheora --enable-libtwolame --enable-libvidstab --enable-libvmaf --enable-libvo-amrwbenc --enable-libvorbis --enable-libvpx --enable-libwebp --enable-libx264 --enable-libx265 --enable-libxavs --enable-libxvid --enable-libzimg --enable-libzmq --enable-libzvbi --enable-version3 --pkg-config-flags=--static --disable-ffplay\n",
      "  libavutil      57.  7.100 / 57.  7.100\n",
      "  libavcodec     59. 12.100 / 59. 12.100\n",
      "  libavformat    59.  8.100 / 59.  8.100\n",
      "  libavdevice    59.  0.101 / 59.  0.101\n",
      "  libavfilter     8. 16.101 /  8. 16.101\n",
      "  libswscale      6.  1.100 /  6.  1.100\n",
      "  libswresample   4.  0.100 /  4.  0.100\n",
      "  libpostproc    56.  0.100 / 56.  0.100\n",
      "Input #0, mov,mp4,m4a,3gp,3g2,mj2, from 'BBB_480.mp4':\n",
      "  Metadata:\n",
      "    major_brand     : isom\n",
      "    minor_version   : 512\n",
      "    compatible_brands: isomiso2avc1mp41\n",
      "    encoder         : Lavf59.8.100\n",
      "  Duration: 00:00:30.02, start: 0.000000, bitrate: 1053 kb/s\n",
      "  Stream #0:0[0x1](und): Video: h264 (High) (avc1 / 0x31637661), yuv420p(tv, bt709, progressive), 720x480 [SAR 32:27 DAR 16:9], 705 kb/s, 24 fps, 24 tbr, 12288 tbn (default)\n",
      "    Metadata:\n",
      "      handler_name    : VideoHandler\n",
      "      vendor_id       : [0][0][0][0]\n",
      "  Stream #0:1[0x2](und): Audio: aac (LC) (mp4a / 0x6134706D), 48000 Hz, 5.1, fltp, 342 kb/s (default)\n",
      "    Metadata:\n",
      "      handler_name    : SoundHandler\n",
      "      vendor_id       : [0][0][0][0]\n",
      "Stream mapping:\n",
      "  Stream #0:0 -> #0:0 (h264 (native) -> hevc (libx265))\n",
      "  Stream #0:1 -> #0:1 (aac (native) -> aac (native))\n",
      "Press [q] to stop, [?] for help\n",
      "x265 [info]: HEVC encoder version 3.5+19-8003e4382\n",
      "x265 [info]: build info [Mac OS X][clang 11.0.0][64 bit] 8bit+10bit+12bit\n",
      "x265 [info]: using cpu capabilities: MMX2 SSE2Fast LZCNT SSSE3 SSE4.2 AVX FMA3 BMI2 AVX2\n",
      "x265 [info]: Main profile, Level-3 (Main tier)\n",
      "x265 [info]: Thread pool created using 4 threads\n",
      "x265 [info]: Slices                              : 1\n",
      "x265 [info]: frame threads / pool features       : 2 / wpp(8 rows)\n",
      "x265 [warning]: Source height < 720p; disabling lookahead-slices\n",
      "x265 [info]: Coding QT: max CU size, min CU size : 64 / 8\n",
      "x265 [info]: Residual QT: max TU size, max depth : 32 / 1 inter / 1 intra\n",
      "x265 [info]: ME / range / subpel / merge         : hex / 57 / 2 / 2\n",
      "x265 [info]: Keyframe min / max / scenecut / bias  : 24 / 250 / 40 / 5.00 \n",
      "x265 [info]: Lookahead / bframes / badapt        : 15 / 4 / 0\n",
      "x265 [info]: b-pyramid / weightp / weightb       : 1 / 1 / 0\n",
      "x265 [info]: References / ref-limit  cu / depth  : 3 / on / on\n",
      "x265 [info]: AQ: mode / str / qg-size / cu-tree  : 2 / 1.0 / 32 / 1\n",
      "x265 [info]: Rate Control / qCompress            : CRF-26.0 / 0.60\n",
      "x265 [info]: tools: rd=2 psy-rd=2.00 rskip mode=1 signhide tmvp fast-intra\n",
      "x265 [info]: tools: strong-intra-smoothing deblock sao\n",
      "Output #0, mp4, to '480_h265.mp4':\n",
      "  Metadata:\n",
      "    major_brand     : isom\n",
      "    minor_version   : 512\n",
      "    compatible_brands: isomiso2avc1mp41\n",
      "    encoder         : Lavf59.8.100\n",
      "  Stream #0:0(und): Video: hevc (hev1 / 0x31766568), yuv420p(tv, bt709, progressive), 720x480 [SAR 32:27 DAR 16:9], q=2-31, 24 fps, 12288 tbn (default)\n",
      "    Metadata:\n",
      "      handler_name    : VideoHandler\n",
      "      vendor_id       : [0][0][0][0]\n",
      "      encoder         : Lavc59.12.100 libx265\n",
      "    Side data:\n",
      "      cpb: bitrate max/min/avg: 0/0/0 buffer size: 0 vbv_delay: N/A\n",
      "  Stream #0:1(und): Audio: aac (LC) (mp4a / 0x6134706D), 48000 Hz, 5.1, fltp, 128 kb/s (default)\n",
      "    Metadata:\n",
      "      handler_name    : SoundHandler\n",
      "      vendor_id       : [0][0][0][0]\n",
      "      encoder         : Lavc59.12.100 aac\n"
     ]
    },
    {
     "name": "stderr",
     "output_type": "stream",
     "text": [
      "frame=  720 fps= 35 q=33.1 Lsize=    1830kB time=00:00:30.01 bitrate= 499.4kbits/s speed=1.46x    \n",
      "video:1334kB audio:472kB subtitle:0kB other streams:0kB global headers:2kB muxing overhead: 1.318920%\n",
      "x265 [info]: frame I:      5, Avg QP:23.87  kb/s: 8233.11 \n",
      "x265 [info]: frame P:    145, Avg QP:25.21  kb/s: 1266.15 \n",
      "x265 [info]: frame B:    570, Avg QP:32.83  kb/s: 64.03   \n",
      "x265 [info]: Weighted P-Frames: Y:12.4% UV:8.3%\n",
      "x265 [info]: consecutive B-frames: 4.0% 0.7% 0.7% 0.7% 94.0% \n",
      "\n",
      "encoded 720 frames in 20.58s (34.99 fps), 362.85 kb/s, Avg QP:31.23\n",
      "[aac @ 0x7fcf1c70e800] Qavg: 617.886\n",
      "ffmpeg version N-104465-g08a501946f-tessus  https://evermeet.cx/ffmpeg/  Copyright (c) 2000-2021 the FFmpeg developers\n",
      "  built with Apple clang version 11.0.0 (clang-1100.0.33.17)\n",
      "  configuration: --cc=/usr/bin/clang --prefix=/opt/ffmpeg --extra-version=tessus --enable-avisynth --enable-fontconfig --enable-gpl --enable-libaom --enable-libass --enable-libbluray --enable-libdav1d --enable-libfreetype --enable-libgsm --enable-libmodplug --enable-libmp3lame --enable-libmysofa --enable-libopencore-amrnb --enable-libopencore-amrwb --enable-libopenh264 --enable-libopenjpeg --enable-libopus --enable-librubberband --enable-libshine --enable-libsnappy --enable-libsoxr --enable-libspeex --enable-libtheora --enable-libtwolame --enable-libvidstab --enable-libvmaf --enable-libvo-amrwbenc --enable-libvorbis --enable-libvpx --enable-libwebp --enable-libx264 --enable-libx265 --enable-libxavs --enable-libxvid --enable-libzimg --enable-libzmq --enable-libzvbi --enable-version3 --pkg-config-flags=--static --disable-ffplay\n",
      "  libavutil      57.  7.100 / 57.  7.100\n",
      "  libavcodec     59. 12.100 / 59. 12.100\n",
      "  libavformat    59.  8.100 / 59.  8.100\n",
      "  libavdevice    59.  0.101 / 59.  0.101\n",
      "  libavfilter     8. 16.101 /  8. 16.101\n",
      "  libswscale      6.  1.100 /  6.  1.100\n",
      "  libswresample   4.  0.100 /  4.  0.100\n",
      "  libpostproc    56.  0.100 / 56.  0.100\n",
      "Input #0, mov,mp4,m4a,3gp,3g2,mj2, from 'BBB_360x240.mp4':\n",
      "  Metadata:\n",
      "    major_brand     : isom\n",
      "    minor_version   : 512\n",
      "    compatible_brands: isomiso2avc1mp41\n",
      "    encoder         : Lavf59.8.100\n",
      "  Duration: 00:00:30.02, start: 0.000000, bitrate: 574 kb/s\n",
      "  Stream #0:0[0x1](und): Video: h264 (High) (avc1 / 0x31637661), yuv420p(tv, bt709, progressive), 360x240 [SAR 32:27 DAR 16:9], 226 kb/s, 24 fps, 24 tbr, 12288 tbn (default)\n",
      "    Metadata:\n",
      "      handler_name    : VideoHandler\n",
      "      vendor_id       : [0][0][0][0]\n",
      "  Stream #0:1[0x2](und): Audio: aac (LC) (mp4a / 0x6134706D), 48000 Hz, 5.1, fltp, 342 kb/s (default)\n",
      "    Metadata:\n",
      "      handler_name    : SoundHandler\n",
      "      vendor_id       : [0][0][0][0]\n",
      "Stream mapping:\n",
      "  Stream #0:0 -> #0:0 (h264 (native) -> hevc (libx265))\n",
      "  Stream #0:1 -> #0:1 (aac (native) -> aac (native))\n",
      "Press [q] to stop, [?] for help\n",
      "x265 [info]: HEVC encoder version 3.5+19-8003e4382\n",
      "x265 [info]: build info [Mac OS X][clang 11.0.0][64 bit] 8bit+10bit+12bit\n",
      "x265 [info]: using cpu capabilities: MMX2 SSE2Fast LZCNT SSSE3 SSE4.2 AVX FMA3 BMI2 AVX2\n",
      "x265 [info]: Main profile, Level-2 (Main tier)\n",
      "x265 [info]: Thread pool created using 4 threads\n",
      "x265 [info]: Slices                              : 1\n",
      "x265 [info]: frame threads / pool features       : 2 / wpp(4 rows)\n",
      "x265 [warning]: Source height < 720p; disabling lookahead-slices\n",
      "x265 [info]: Coding QT: max CU size, min CU size : 64 / 8\n",
      "x265 [info]: Residual QT: max TU size, max depth : 32 / 1 inter / 1 intra\n",
      "x265 [info]: ME / range / subpel / merge         : hex / 57 / 2 / 2\n",
      "x265 [info]: Keyframe min / max / scenecut / bias  : 24 / 250 / 40 / 5.00 \n",
      "x265 [info]: Lookahead / bframes / badapt        : 15 / 4 / 0\n",
      "x265 [info]: b-pyramid / weightp / weightb       : 1 / 1 / 0\n",
      "x265 [info]: References / ref-limit  cu / depth  : 3 / on / on\n",
      "x265 [info]: AQ: mode / str / qg-size / cu-tree  : 2 / 1.0 / 32 / 1\n",
      "x265 [info]: Rate Control / qCompress            : CRF-26.0 / 0.60\n",
      "x265 [info]: tools: rd=2 psy-rd=2.00 rskip mode=1 signhide tmvp fast-intra\n",
      "x265 [info]: tools: strong-intra-smoothing deblock sao\n",
      "Output #0, mp4, to '360x240_h265.mp4':\n",
      "  Metadata:\n",
      "    major_brand     : isom\n",
      "    minor_version   : 512\n",
      "    compatible_brands: isomiso2avc1mp41\n",
      "    encoder         : Lavf59.8.100\n",
      "  Stream #0:0(und): Video: hevc (hev1 / 0x31766568), yuv420p(tv, bt709, progressive), 360x240 [SAR 32:27 DAR 16:9], q=2-31, 24 fps, 12288 tbn (default)\n",
      "    Metadata:\n",
      "      handler_name    : VideoHandler\n",
      "      vendor_id       : [0][0][0][0]\n",
      "      encoder         : Lavc59.12.100 libx265\n",
      "    Side data:\n",
      "      cpb: bitrate max/min/avg: 0/0/0 buffer size: 0 vbv_delay: N/A\n",
      "  Stream #0:1(und): Audio: aac (LC) (mp4a / 0x6134706D), 48000 Hz, 5.1, fltp, 128 kb/s (default)\n",
      "    Metadata:\n",
      "      handler_name    : SoundHandler\n",
      "      vendor_id       : [0][0][0][0]\n",
      "      encoder         : Lavc59.12.100 aac\n",
      "frame=  720 fps= 88 q=33.5 Lsize=     932kB time=00:00:30.01 bitrate= 254.5kbits/s speed=3.67x    \n",
      "video:437kB audio:472kB subtitle:0kB other streams:0kB global headers:2kB muxing overhead: 2.621058%\n",
      "x265 [info]: frame I:      5, Avg QP:23.94  kb/s: 2698.56 \n",
      "x265 [info]: frame P:    145, Avg QP:25.57  kb/s: 405.81  \n",
      "x265 [info]: frame B:    570, Avg QP:33.16  kb/s: 21.95   \n",
      "x265 [info]: Weighted P-Frames: Y:10.3% UV:4.8%\n",
      "x265 [info]: consecutive B-frames: 4.0% 0.7% 0.7% 0.7% 94.0% \n",
      "\n",
      "encoded 720 frames in 8.16s (88.18 fps), 117.84 kb/s, Avg QP:31.57\n",
      "[aac @ 0x7f9afb607980] Qavg: 617.886\n",
      "ffmpeg version N-104465-g08a501946f-tessus  https://evermeet.cx/ffmpeg/  Copyright (c) 2000-2021 the FFmpeg developers\n",
      "  built with Apple clang version 11.0.0 (clang-1100.0.33.17)\n",
      "  configuration: --cc=/usr/bin/clang --prefix=/opt/ffmpeg --extra-version=tessus --enable-avisynth --enable-fontconfig --enable-gpl --enable-libaom --enable-libass --enable-libbluray --enable-libdav1d --enable-libfreetype --enable-libgsm --enable-libmodplug --enable-libmp3lame --enable-libmysofa --enable-libopencore-amrnb --enable-libopencore-amrwb --enable-libopenh264 --enable-libopenjpeg --enable-libopus --enable-librubberband --enable-libshine --enable-libsnappy --enable-libsoxr --enable-libspeex --enable-libtheora --enable-libtwolame --enable-libvidstab --enable-libvmaf --enable-libvo-amrwbenc --enable-libvorbis --enable-libvpx --enable-libwebp --enable-libx264 --enable-libx265 --enable-libxavs --enable-libxvid --enable-libzimg --enable-libzmq --enable-libzvbi --enable-version3 --pkg-config-flags=--static --disable-ffplay\n",
      "  libavutil      57.  7.100 / 57.  7.100\n",
      "  libavcodec     59. 12.100 / 59. 12.100\n",
      "  libavformat    59.  8.100 / 59.  8.100\n",
      "  libavdevice    59.  0.101 / 59.  0.101\n",
      "  libavfilter     8. 16.101 /  8. 16.101\n",
      "  libswscale      6.  1.100 /  6.  1.100\n",
      "  libswresample   4.  0.100 /  4.  0.100\n",
      "  libpostproc    56.  0.100 / 56.  0.100\n",
      "Input #0, mov,mp4,m4a,3gp,3g2,mj2, from 'BBB_160x120.mp4':\n",
      "  Metadata:\n",
      "    major_brand     : isom\n",
      "    minor_version   : 512\n",
      "    compatible_brands: isomiso2avc1mp41\n",
      "    encoder         : Lavf59.8.100\n",
      "  Duration: 00:00:30.02, start: 0.000000, bitrate: 415 kb/s\n",
      "  Stream #0:0[0x1](und): Video: h264 (High) (avc1 / 0x31637661), yuv420p(tv, bt709, progressive), 160x120 [SAR 4:3 DAR 16:9], 67 kb/s, 24 fps, 24 tbr, 12288 tbn (default)\n",
      "    Metadata:\n",
      "      handler_name    : VideoHandler\n",
      "      vendor_id       : [0][0][0][0]\n",
      "  Stream #0:1[0x2](und): Audio: aac (LC) (mp4a / 0x6134706D), 48000 Hz, 5.1, fltp, 342 kb/s (default)\n",
      "    Metadata:\n",
      "      handler_name    : SoundHandler\n",
      "      vendor_id       : [0][0][0][0]\n",
      "Stream mapping:\n",
      "  Stream #0:0 -> #0:0 (h264 (native) -> hevc (libx265))\n",
      "  Stream #0:1 -> #0:1 (aac (native) -> aac (native))\n",
      "Press [q] to stop, [?] for help\n",
      "x265 [info]: HEVC encoder version 3.5+19-8003e4382\n",
      "x265 [info]: build info [Mac OS X][clang 11.0.0][64 bit] 8bit+10bit+12bit\n",
      "x265 [info]: using cpu capabilities: MMX2 SSE2Fast LZCNT SSSE3 SSE4.2 AVX FMA3 BMI2 AVX2\n",
      "x265 [info]: Main profile, Level-1 (Main tier)\n",
      "x265 [info]: Thread pool created using 4 threads\n",
      "x265 [info]: Slices                              : 1\n",
      "x265 [info]: frame threads / pool features       : 2 / wpp(2 rows)\n",
      "x265 [warning]: Source height < 720p; disabling lookahead-slices\n",
      "x265 [info]: Coding QT: max CU size, min CU size : 64 / 8\n",
      "x265 [info]: Residual QT: max TU size, max depth : 32 / 1 inter / 1 intra\n",
      "x265 [info]: ME / range / subpel / merge         : hex / 57 / 2 / 2\n",
      "x265 [info]: Keyframe min / max / scenecut / bias  : 24 / 250 / 40 / 5.00 \n",
      "x265 [info]: Lookahead / bframes / badapt        : 15 / 4 / 0\n",
      "x265 [info]: b-pyramid / weightp / weightb       : 1 / 1 / 0\n",
      "x265 [info]: References / ref-limit  cu / depth  : 3 / on / on\n",
      "x265 [info]: AQ: mode / str / qg-size / cu-tree  : 2 / 1.0 / 32 / 1\n",
      "x265 [info]: Rate Control / qCompress            : CRF-26.0 / 0.60\n",
      "x265 [info]: tools: rd=2 psy-rd=2.00 rskip mode=1 signhide tmvp fast-intra\n",
      "x265 [info]: tools: strong-intra-smoothing deblock sao\n",
      "Output #0, mp4, to '160x120_h265.mp4':\n",
      "  Metadata:\n",
      "    major_brand     : isom\n",
      "    minor_version   : 512\n",
      "    compatible_brands: isomiso2avc1mp41\n",
      "    encoder         : Lavf59.8.100\n",
      "  Stream #0:0(und): Video: hevc (hev1 / 0x31766568), yuv420p(tv, bt709, progressive), 160x120 [SAR 4:3 DAR 16:9], q=2-31, 24 fps, 12288 tbn (default)\n",
      "    Metadata:\n",
      "      handler_name    : VideoHandler\n",
      "      vendor_id       : [0][0][0][0]\n",
      "      encoder         : Lavc59.12.100 libx265\n",
      "    Side data:\n",
      "      cpb: bitrate max/min/avg: 0/0/0 buffer size: 0 vbv_delay: N/A\n",
      "  Stream #0:1(und): Audio: aac (LC) (mp4a / 0x6134706D), 48000 Hz, 5.1, fltp, 128 kb/s (default)\n",
      "    Metadata:\n",
      "      handler_name    : SoundHandler\n",
      "      vendor_id       : [0][0][0][0]\n",
      "      encoder         : Lavc59.12.100 aac\n"
     ]
    },
    {
     "name": "stderr",
     "output_type": "stream",
     "text": [
      "frame=  720 fps=171 q=33.7 Lsize=     622kB time=00:00:30.01 bitrate= 169.9kbits/s speed=7.14x    \n",
      "video:127kB audio:472kB subtitle:0kB other streams:0kB global headers:2kB muxing overhead: 3.973122%\n",
      "x265 [info]: frame I:      6, Avg QP:23.95  kb/s: 616.77  \n",
      "x265 [info]: frame P:    144, Avg QP:25.62  kb/s: 109.28  \n",
      "x265 [info]: frame B:    570, Avg QP:33.04  kb/s: 7.82    \n",
      "x265 [info]: Weighted P-Frames: Y:10.4% UV:4.2%\n",
      "x265 [info]: consecutive B-frames: 4.0% 0.7% 0.7% 0.7% 94.0% \n",
      "\n",
      "encoded 720 frames in 4.18s (172.14 fps), 33.19 kb/s, Avg QP:31.48\n",
      "[aac @ 0x7f9ad4a07300] Qavg: 617.886\n"
     ]
    }
   ],
   "source": [
    "# h265\n",
    "convert('BBB_720.mp4', '720_h265.mp4', \"h265\")\n",
    "convert('BBB_480.mp4', '480_h265.mp4', \"h265\")\n",
    "convert('BBB_360x240.mp4', '360x240_h265.mp4', \"h265\")\n",
    "convert('BBB_160x120.mp4', '160x120_h265.mp4', \"h265\")\n"
   ]
  },
  {
   "cell_type": "code",
   "execution_count": 6,
   "id": "21610ec2",
   "metadata": {},
   "outputs": [
    {
     "name": "stderr",
     "output_type": "stream",
     "text": [
      "ffmpeg version N-104465-g08a501946f-tessus  https://evermeet.cx/ffmpeg/  Copyright (c) 2000-2021 the FFmpeg developers\n",
      "  built with Apple clang version 11.0.0 (clang-1100.0.33.17)\n",
      "  configuration: --cc=/usr/bin/clang --prefix=/opt/ffmpeg --extra-version=tessus --enable-avisynth --enable-fontconfig --enable-gpl --enable-libaom --enable-libass --enable-libbluray --enable-libdav1d --enable-libfreetype --enable-libgsm --enable-libmodplug --enable-libmp3lame --enable-libmysofa --enable-libopencore-amrnb --enable-libopencore-amrwb --enable-libopenh264 --enable-libopenjpeg --enable-libopus --enable-librubberband --enable-libshine --enable-libsnappy --enable-libsoxr --enable-libspeex --enable-libtheora --enable-libtwolame --enable-libvidstab --enable-libvmaf --enable-libvo-amrwbenc --enable-libvorbis --enable-libvpx --enable-libwebp --enable-libx264 --enable-libx265 --enable-libxavs --enable-libxvid --enable-libzimg --enable-libzmq --enable-libzvbi --enable-version3 --pkg-config-flags=--static --disable-ffplay\n",
      "  libavutil      57.  7.100 / 57.  7.100\n",
      "  libavcodec     59. 12.100 / 59. 12.100\n",
      "  libavformat    59.  8.100 / 59.  8.100\n",
      "  libavdevice    59.  0.101 / 59.  0.101\n",
      "  libavfilter     8. 16.101 /  8. 16.101\n",
      "  libswscale      6.  1.100 /  6.  1.100\n",
      "  libswresample   4.  0.100 /  4.  0.100\n",
      "  libpostproc    56.  0.100 / 56.  0.100\n",
      "Input #0, mov,mp4,m4a,3gp,3g2,mj2, from 'BBB_480.mp4':\n",
      "  Metadata:\n",
      "    major_brand     : isom\n",
      "    minor_version   : 512\n",
      "    compatible_brands: isomiso2avc1mp41\n",
      "    encoder         : Lavf59.8.100\n",
      "  Duration: 00:00:30.02, start: 0.000000, bitrate: 1053 kb/s\n",
      "  Stream #0:0[0x1](und): Video: h264 (High) (avc1 / 0x31637661), yuv420p(tv, bt709, progressive), 720x480 [SAR 32:27 DAR 16:9], 705 kb/s, 24 fps, 24 tbr, 12288 tbn (default)\n",
      "    Metadata:\n",
      "      handler_name    : VideoHandler\n",
      "      vendor_id       : [0][0][0][0]\n",
      "  Stream #0:1[0x2](und): Audio: aac (LC) (mp4a / 0x6134706D), 48000 Hz, 5.1, fltp, 342 kb/s (default)\n",
      "    Metadata:\n",
      "      handler_name    : SoundHandler\n",
      "      vendor_id       : [0][0][0][0]\n",
      "Stream mapping:\n",
      "  Stream #0:0 -> #0:0 (h264 (native) -> av1 (libaom-av1))\n",
      "  Stream #0:1 -> #0:1 (aac (native) -> vorbis (libvorbis))\n",
      "Press [q] to stop, [?] for help\n",
      "[libaom-av1 @ 0x7f99f4007280] 3.2.0-186-g2b17f85f1\n",
      "Output #0, matroska, to '480_AV1.mkv':\n",
      "  Metadata:\n",
      "    major_brand     : isom\n",
      "    minor_version   : 512\n",
      "    compatible_brands: isomiso2avc1mp41\n",
      "    encoder         : Lavf59.8.100\n",
      "  Stream #0:0(und): Video: av1 (AV01 / 0x31305641), yuv420p(tv, bt709, progressive), 720x480 [SAR 32:27 DAR 16:9], q=2-31, 24 fps, 1k tbn (default)\n",
      "    Metadata:\n",
      "      handler_name    : VideoHandler\n",
      "      vendor_id       : [0][0][0][0]\n",
      "      encoder         : Lavc59.12.100 libaom-av1\n",
      "    Side data:\n",
      "      cpb: bitrate max/min/avg: 0/0/0 buffer size: 0 vbv_delay: N/A\n",
      "  Stream #0:1(und): Audio: vorbis (oV[0][0] / 0x566F), 48000 Hz, 5.1, fltp (default)\n",
      "    Metadata:\n",
      "      handler_name    : SoundHandler\n",
      "      vendor_id       : [0][0][0][0]\n",
      "      encoder         : Lavc59.12.100 libvorbis\n",
      "frame=  131 fps=0.0 q=0.0 Lsize=     442kB time=00:00:05.57 bitrate= 649.2kbits/s speed=0.00193x    \n",
      "video:277kB audio:154kB subtitle:0kB other streams:0kB global headers:7kB muxing overhead: 2.469667%\n",
      "Exiting normally, received signal 2.\n",
      "frame=  385 fps=0.2 q=0.0 size=     512kB time=00:00:16.10 bitrate= 260.4kbits/s speed=0.00632x    \r"
     ]
    },
    {
     "ename": "KeyboardInterrupt",
     "evalue": "",
     "output_type": "error",
     "traceback": [
      "\u001b[0;31m---------------------------------------------------------------------------\u001b[0m",
      "\u001b[0;31mKeyboardInterrupt\u001b[0m                         Traceback (most recent call last)",
      "\u001b[0;32m/var/folders/xb/vf08xwgn07d05jdqtgsccfjr0000gn/T/ipykernel_30889/2847031872.py\u001b[0m in \u001b[0;36m<module>\u001b[0;34m\u001b[0m\n\u001b[1;32m      1\u001b[0m \u001b[0;31m# AV1\u001b[0m\u001b[0;34m\u001b[0m\u001b[0;34m\u001b[0m\u001b[0;34m\u001b[0m\u001b[0m\n\u001b[1;32m      2\u001b[0m \u001b[0;31m#convert('BBB_720.mp4', '720_AV1.mkv', \"AV1\")\u001b[0m\u001b[0;34m\u001b[0m\u001b[0;34m\u001b[0m\u001b[0;34m\u001b[0m\u001b[0m\n\u001b[0;32m----> 3\u001b[0;31m \u001b[0mconvert\u001b[0m\u001b[0;34m(\u001b[0m\u001b[0;34m'BBB_480.mp4'\u001b[0m\u001b[0;34m,\u001b[0m \u001b[0;34m'480_AV1.mkv'\u001b[0m\u001b[0;34m,\u001b[0m \u001b[0;34m\"AV1\"\u001b[0m\u001b[0;34m)\u001b[0m\u001b[0;34m\u001b[0m\u001b[0;34m\u001b[0m\u001b[0m\n\u001b[0m\u001b[1;32m      4\u001b[0m \u001b[0mconvert\u001b[0m\u001b[0;34m(\u001b[0m\u001b[0;34m'BBB_360x240.mp4'\u001b[0m\u001b[0;34m,\u001b[0m \u001b[0;34m'360x240_AV1.mkv'\u001b[0m\u001b[0;34m,\u001b[0m \u001b[0;34m\"AV1\"\u001b[0m\u001b[0;34m)\u001b[0m\u001b[0;34m\u001b[0m\u001b[0;34m\u001b[0m\u001b[0m\n\u001b[1;32m      5\u001b[0m \u001b[0mconvert\u001b[0m\u001b[0;34m(\u001b[0m\u001b[0;34m'BBB_160x120.mp4'\u001b[0m\u001b[0;34m,\u001b[0m \u001b[0;34m'160x120_AV1.mkv'\u001b[0m\u001b[0;34m,\u001b[0m \u001b[0;34m\"AV1\"\u001b[0m\u001b[0;34m)\u001b[0m\u001b[0;34m\u001b[0m\u001b[0;34m\u001b[0m\u001b[0m\n",
      "\u001b[0;32m/var/folders/xb/vf08xwgn07d05jdqtgsccfjr0000gn/T/ipykernel_30889/2628347676.py\u001b[0m in \u001b[0;36mconvert\u001b[0;34m(name, output, mode)\u001b[0m\n\u001b[1;32m     26\u001b[0m                                          -crf 30 -b:v 0'})\n\u001b[1;32m     27\u001b[0m         \u001b[0mff\u001b[0m\u001b[0;34m.\u001b[0m\u001b[0mcmd\u001b[0m\u001b[0;34m\u001b[0m\u001b[0;34m\u001b[0m\u001b[0m\n\u001b[0;32m---> 28\u001b[0;31m         \u001b[0mff\u001b[0m\u001b[0;34m.\u001b[0m\u001b[0mrun\u001b[0m\u001b[0;34m(\u001b[0m\u001b[0;34m)\u001b[0m\u001b[0;34m\u001b[0m\u001b[0;34m\u001b[0m\u001b[0m\n\u001b[0m\u001b[1;32m     29\u001b[0m \u001b[0;34m\u001b[0m\u001b[0m\n\u001b[1;32m     30\u001b[0m \u001b[0;31m## Exercici 2\u001b[0m\u001b[0;34m\u001b[0m\u001b[0;34m\u001b[0m\u001b[0;34m\u001b[0m\u001b[0m\n",
      "\u001b[0;32m~/opt/anaconda3/lib/python3.8/site-packages/ffmpy.py\u001b[0m in \u001b[0;36mrun\u001b[0;34m(self, input_data, stdout, stderr, env)\u001b[0m\n\u001b[1;32m    102\u001b[0m                 \u001b[0;32mraise\u001b[0m\u001b[0;34m\u001b[0m\u001b[0;34m\u001b[0m\u001b[0m\n\u001b[1;32m    103\u001b[0m \u001b[0;34m\u001b[0m\u001b[0m\n\u001b[0;32m--> 104\u001b[0;31m         \u001b[0mout\u001b[0m \u001b[0;34m=\u001b[0m \u001b[0mself\u001b[0m\u001b[0;34m.\u001b[0m\u001b[0mprocess\u001b[0m\u001b[0;34m.\u001b[0m\u001b[0mcommunicate\u001b[0m\u001b[0;34m(\u001b[0m\u001b[0minput\u001b[0m\u001b[0;34m=\u001b[0m\u001b[0minput_data\u001b[0m\u001b[0;34m)\u001b[0m\u001b[0;34m\u001b[0m\u001b[0;34m\u001b[0m\u001b[0m\n\u001b[0m\u001b[1;32m    105\u001b[0m         \u001b[0;32mif\u001b[0m \u001b[0mself\u001b[0m\u001b[0;34m.\u001b[0m\u001b[0mprocess\u001b[0m\u001b[0;34m.\u001b[0m\u001b[0mreturncode\u001b[0m \u001b[0;34m!=\u001b[0m \u001b[0;36m0\u001b[0m\u001b[0;34m:\u001b[0m\u001b[0;34m\u001b[0m\u001b[0;34m\u001b[0m\u001b[0m\n\u001b[1;32m    106\u001b[0m             \u001b[0;32mraise\u001b[0m \u001b[0mFFRuntimeError\u001b[0m\u001b[0;34m(\u001b[0m\u001b[0mself\u001b[0m\u001b[0;34m.\u001b[0m\u001b[0mcmd\u001b[0m\u001b[0;34m,\u001b[0m \u001b[0mself\u001b[0m\u001b[0;34m.\u001b[0m\u001b[0mprocess\u001b[0m\u001b[0;34m.\u001b[0m\u001b[0mreturncode\u001b[0m\u001b[0;34m,\u001b[0m \u001b[0mout\u001b[0m\u001b[0;34m[\u001b[0m\u001b[0;36m0\u001b[0m\u001b[0;34m]\u001b[0m\u001b[0;34m,\u001b[0m \u001b[0mout\u001b[0m\u001b[0;34m[\u001b[0m\u001b[0;36m1\u001b[0m\u001b[0;34m]\u001b[0m\u001b[0;34m)\u001b[0m\u001b[0;34m\u001b[0m\u001b[0;34m\u001b[0m\u001b[0m\n",
      "\u001b[0;32m~/opt/anaconda3/lib/python3.8/subprocess.py\u001b[0m in \u001b[0;36mcommunicate\u001b[0;34m(self, input, timeout)\u001b[0m\n\u001b[1;32m   1018\u001b[0m                 \u001b[0mstderr\u001b[0m \u001b[0;34m=\u001b[0m \u001b[0mself\u001b[0m\u001b[0;34m.\u001b[0m\u001b[0mstderr\u001b[0m\u001b[0;34m.\u001b[0m\u001b[0mread\u001b[0m\u001b[0;34m(\u001b[0m\u001b[0;34m)\u001b[0m\u001b[0;34m\u001b[0m\u001b[0;34m\u001b[0m\u001b[0m\n\u001b[1;32m   1019\u001b[0m                 \u001b[0mself\u001b[0m\u001b[0;34m.\u001b[0m\u001b[0mstderr\u001b[0m\u001b[0;34m.\u001b[0m\u001b[0mclose\u001b[0m\u001b[0;34m(\u001b[0m\u001b[0;34m)\u001b[0m\u001b[0;34m\u001b[0m\u001b[0;34m\u001b[0m\u001b[0m\n\u001b[0;32m-> 1020\u001b[0;31m             \u001b[0mself\u001b[0m\u001b[0;34m.\u001b[0m\u001b[0mwait\u001b[0m\u001b[0;34m(\u001b[0m\u001b[0;34m)\u001b[0m\u001b[0;34m\u001b[0m\u001b[0;34m\u001b[0m\u001b[0m\n\u001b[0m\u001b[1;32m   1021\u001b[0m         \u001b[0;32melse\u001b[0m\u001b[0;34m:\u001b[0m\u001b[0;34m\u001b[0m\u001b[0;34m\u001b[0m\u001b[0m\n\u001b[1;32m   1022\u001b[0m             \u001b[0;32mif\u001b[0m \u001b[0mtimeout\u001b[0m \u001b[0;32mis\u001b[0m \u001b[0;32mnot\u001b[0m \u001b[0;32mNone\u001b[0m\u001b[0;34m:\u001b[0m\u001b[0;34m\u001b[0m\u001b[0;34m\u001b[0m\u001b[0m\n",
      "\u001b[0;32m~/opt/anaconda3/lib/python3.8/subprocess.py\u001b[0m in \u001b[0;36mwait\u001b[0;34m(self, timeout)\u001b[0m\n\u001b[1;32m   1081\u001b[0m             \u001b[0mendtime\u001b[0m \u001b[0;34m=\u001b[0m \u001b[0m_time\u001b[0m\u001b[0;34m(\u001b[0m\u001b[0;34m)\u001b[0m \u001b[0;34m+\u001b[0m \u001b[0mtimeout\u001b[0m\u001b[0;34m\u001b[0m\u001b[0;34m\u001b[0m\u001b[0m\n\u001b[1;32m   1082\u001b[0m         \u001b[0;32mtry\u001b[0m\u001b[0;34m:\u001b[0m\u001b[0;34m\u001b[0m\u001b[0;34m\u001b[0m\u001b[0m\n\u001b[0;32m-> 1083\u001b[0;31m             \u001b[0;32mreturn\u001b[0m \u001b[0mself\u001b[0m\u001b[0;34m.\u001b[0m\u001b[0m_wait\u001b[0m\u001b[0;34m(\u001b[0m\u001b[0mtimeout\u001b[0m\u001b[0;34m=\u001b[0m\u001b[0mtimeout\u001b[0m\u001b[0;34m)\u001b[0m\u001b[0;34m\u001b[0m\u001b[0;34m\u001b[0m\u001b[0m\n\u001b[0m\u001b[1;32m   1084\u001b[0m         \u001b[0;32mexcept\u001b[0m \u001b[0mKeyboardInterrupt\u001b[0m\u001b[0;34m:\u001b[0m\u001b[0;34m\u001b[0m\u001b[0;34m\u001b[0m\u001b[0m\n\u001b[1;32m   1085\u001b[0m             \u001b[0;31m# https://bugs.python.org/issue25942\u001b[0m\u001b[0;34m\u001b[0m\u001b[0;34m\u001b[0m\u001b[0;34m\u001b[0m\u001b[0m\n",
      "\u001b[0;32m~/opt/anaconda3/lib/python3.8/subprocess.py\u001b[0m in \u001b[0;36m_wait\u001b[0;34m(self, timeout)\u001b[0m\n\u001b[1;32m   1804\u001b[0m                         \u001b[0;32mif\u001b[0m \u001b[0mself\u001b[0m\u001b[0;34m.\u001b[0m\u001b[0mreturncode\u001b[0m \u001b[0;32mis\u001b[0m \u001b[0;32mnot\u001b[0m \u001b[0;32mNone\u001b[0m\u001b[0;34m:\u001b[0m\u001b[0;34m\u001b[0m\u001b[0;34m\u001b[0m\u001b[0m\n\u001b[1;32m   1805\u001b[0m                             \u001b[0;32mbreak\u001b[0m  \u001b[0;31m# Another thread waited.\u001b[0m\u001b[0;34m\u001b[0m\u001b[0;34m\u001b[0m\u001b[0m\n\u001b[0;32m-> 1806\u001b[0;31m                         \u001b[0;34m(\u001b[0m\u001b[0mpid\u001b[0m\u001b[0;34m,\u001b[0m \u001b[0msts\u001b[0m\u001b[0;34m)\u001b[0m \u001b[0;34m=\u001b[0m \u001b[0mself\u001b[0m\u001b[0;34m.\u001b[0m\u001b[0m_try_wait\u001b[0m\u001b[0;34m(\u001b[0m\u001b[0;36m0\u001b[0m\u001b[0;34m)\u001b[0m\u001b[0;34m\u001b[0m\u001b[0;34m\u001b[0m\u001b[0m\n\u001b[0m\u001b[1;32m   1807\u001b[0m                         \u001b[0;31m# Check the pid and loop as waitpid has been known to\u001b[0m\u001b[0;34m\u001b[0m\u001b[0;34m\u001b[0m\u001b[0;34m\u001b[0m\u001b[0m\n\u001b[1;32m   1808\u001b[0m                         \u001b[0;31m# return 0 even without WNOHANG in odd situations.\u001b[0m\u001b[0;34m\u001b[0m\u001b[0;34m\u001b[0m\u001b[0;34m\u001b[0m\u001b[0m\n",
      "\u001b[0;32m~/opt/anaconda3/lib/python3.8/subprocess.py\u001b[0m in \u001b[0;36m_try_wait\u001b[0;34m(self, wait_flags)\u001b[0m\n\u001b[1;32m   1762\u001b[0m             \u001b[0;34m\"\"\"All callers to this function MUST hold self._waitpid_lock.\"\"\"\u001b[0m\u001b[0;34m\u001b[0m\u001b[0;34m\u001b[0m\u001b[0m\n\u001b[1;32m   1763\u001b[0m             \u001b[0;32mtry\u001b[0m\u001b[0;34m:\u001b[0m\u001b[0;34m\u001b[0m\u001b[0;34m\u001b[0m\u001b[0m\n\u001b[0;32m-> 1764\u001b[0;31m                 \u001b[0;34m(\u001b[0m\u001b[0mpid\u001b[0m\u001b[0;34m,\u001b[0m \u001b[0msts\u001b[0m\u001b[0;34m)\u001b[0m \u001b[0;34m=\u001b[0m \u001b[0mos\u001b[0m\u001b[0;34m.\u001b[0m\u001b[0mwaitpid\u001b[0m\u001b[0;34m(\u001b[0m\u001b[0mself\u001b[0m\u001b[0;34m.\u001b[0m\u001b[0mpid\u001b[0m\u001b[0;34m,\u001b[0m \u001b[0mwait_flags\u001b[0m\u001b[0;34m)\u001b[0m\u001b[0;34m\u001b[0m\u001b[0;34m\u001b[0m\u001b[0m\n\u001b[0m\u001b[1;32m   1765\u001b[0m             \u001b[0;32mexcept\u001b[0m \u001b[0mChildProcessError\u001b[0m\u001b[0;34m:\u001b[0m\u001b[0;34m\u001b[0m\u001b[0;34m\u001b[0m\u001b[0m\n\u001b[1;32m   1766\u001b[0m                 \u001b[0;31m# This happens if SIGCLD is set to be ignored or waiting\u001b[0m\u001b[0;34m\u001b[0m\u001b[0;34m\u001b[0m\u001b[0;34m\u001b[0m\u001b[0m\n",
      "\u001b[0;31mKeyboardInterrupt\u001b[0m: "
     ]
    }
   ],
   "source": [
    "# AV1\n",
    "#convert('BBB_720.mp4', '720_AV1.mkv', \"AV1\")\n",
    "convert('BBB_480.mp4', '480_AV1.mkv', \"AV1\")\n",
    "convert('BBB_360x240.mp4', '360x240_AV1.mkv', \"AV1\")\n",
    "convert('BBB_160x120.mp4', '160x120_AV1.mkv', \"AV1\")\n"
   ]
  },
  {
   "cell_type": "markdown",
   "id": "2ac63f07",
   "metadata": {},
   "source": [
    "**2) Create a script that will export 2 video\n",
    "comparision.\n",
    "VP8 vs VP9 (both in same screen).Then choose 2 codecs of the 4 mentioned\n",
    "before, create the output and comment the\n",
    "differences you find there**"
   ]
  },
  {
   "cell_type": "code",
   "execution_count": null,
   "id": "0cf9bc8f",
   "metadata": {
    "scrolled": false
   },
   "outputs": [],
   "source": [
    "comparison('720_vp8.webm', '720_VP9.webm', 'comparison.mp4')\n"
   ]
  },
  {
   "cell_type": "markdown",
   "id": "88c5ae87",
   "metadata": {},
   "source": [
    "La versió de vp8 es veu amb menys qualitat que la de vp9, encara que no és una diferència massa notable."
   ]
  },
  {
   "cell_type": "markdown",
   "id": "365f1547",
   "metadata": {},
   "source": [
    "**3) Try to achieve with FFMPEG to create a live\n",
    "streaming of the BBB Video. You should\n",
    "broadcast it into an IP address (locally of\n",
    "course) and open this IP or URL inside VLC\n",
    "Media Player.**\n",
    "\n",
    "https://stackoverflow.com/questions/43826675/how-to-live-stream-a-local-video-using-ffmpeg "
   ]
  },
  {
   "cell_type": "code",
   "execution_count": 20,
   "id": "00483f1c",
   "metadata": {},
   "outputs": [
    {
     "data": {
      "text/plain": [
       "0"
      ]
     },
     "execution_count": 20,
     "metadata": {},
     "output_type": "execute_result"
    }
   ],
   "source": [
    "cmd = \"ffmpeg -i input.mp4 -v 0 -vcodec mpeg4 -f mpegts udp://127.0.0.1:23000\"\n",
    "os.system(cmd)\n"
   ]
  },
  {
   "cell_type": "markdown",
   "id": "b41e5870",
   "metadata": {},
   "source": [
    "**4) Create a script that let you choose the IP to\n",
    "broadcast the previous video**"
   ]
  },
  {
   "cell_type": "code",
   "execution_count": 23,
   "id": "b3c080b5",
   "metadata": {},
   "outputs": [
    {
     "data": {
      "text/plain": [
       "0"
      ]
     },
     "execution_count": 23,
     "metadata": {},
     "output_type": "execute_result"
    }
   ],
   "source": [
    "ip = str(\"127.0.0.1:23000\")  # insert any IP you want\n",
    "cmd = \"ffmpeg -i input.mp4 -v 0 -vcodec mpeg4 -f mpegts udp:// \" + str(ip) + \"\"\n",
    "os.system(cmd)\n"
   ]
  }
 ],
 "metadata": {
  "kernelspec": {
   "display_name": "Python 3 (ipykernel)",
   "language": "python",
   "name": "python3"
  },
  "language_info": {
   "codemirror_mode": {
    "name": "ipython",
    "version": 3
   },
   "file_extension": ".py",
   "mimetype": "text/x-python",
   "name": "python",
   "nbconvert_exporter": "python",
   "pygments_lexer": "ipython3",
   "version": "3.8.12"
  }
 },
 "nbformat": 4,
 "nbformat_minor": 5
}
